<?xml version="1.0" standalone="no"?>
<!DOCTYPE svg PUBLIC "-//W3C//DTD SVG 20010904//EN"
 "http://www.w3.org/TR/2001/REC-SVG-20010904/DTD/svg10.dtd">
<svg version="1.0" xmlns="http://www.w3.org/2000/svg"
 width="700.000000pt" height="700.000000pt" viewBox="0 0 700.000000 700.000000"
 preserveAspectRatio="xMidYMid meet">
<metadata>
Created by potrace 1.11, written by Peter Selinger 2001-2013
</metadata>
<g transform="translate(0.000000,700.000000) scale(0.100000,-0.100000)"
fill="#000000" stroke="none">
<path d="M3425 6415 c-132 -64 -421 -203 -490 -235 -33 -15 -132 -62 -220
-105 -88 -42 -196 -94 -240 -115 -44 -21 -147 -70 -230 -110 -166 -80 -328
-158 -480 -230 -521 -248 -508 -242 -930 -445 -77 -37 -180 -87 -230 -110 -49
-24 -157 -75 -240 -115 -82 -39 -169 -81 -192 -92 l-43 -20 4 -154 c2 -85 5
-156 7 -159 3 -2 117 -59 254 -126 138 -67 338 -164 445 -216 107 -53 272
-133 365 -178 332 -161 523 -254 760 -370 132 -65 317 -154 410 -200 175 -85
344 -167 735 -357 380 -186 406 -198 415 -198 4 0 69 30 144 66 269 132 569
278 706 344 77 37 230 112 340 165 369 180 569 277 720 350 83 40 233 113 335
163 555 271 683 332 688 328 2 -3 4 -98 4 -213 0 -114 -1 -522 -1 -905 l-1
-697 -132 -64 c-73 -36 -270 -132 -438 -215 -383 -187 -673 -329 -955 -467
-121 -59 -339 -166 -485 -237 -146 -72 -332 -163 -415 -203 -82 -40 -232 -113
-333 -163 l-183 -91 -132 66 c-73 36 -208 103 -302 148 -93 46 -282 138 -420
205 -137 67 -335 164 -440 215 -104 51 -307 150 -450 220 -351 172 -673 329
-890 435 -262 127 -595 290 -712 348 l-103 51 0 -258 0 -259 138 -67 c75 -38
274 -136 442 -218 168 -83 307 -151 310 -152 3 -1 113 -54 245 -119 132 -65
362 -178 510 -251 149 -73 398 -196 555 -273 510 -250 902 -442 1056 -518 83
-41 156 -74 162 -74 6 0 178 84 384 186 205 103 513 255 683 339 308 152 1557
771 2085 1033 l275 137 0 1299 0 1298 -40 24 c-85 49 -183 104 -187 104 -3 0
-711 -352 -1574 -782 -863 -429 -1573 -781 -1579 -781 -5 0 -365 177 -800 393
-434 216 -1023 508 -1309 649 l-518 257 263 131 c145 72 735 366 1310 652 576
287 1051 521 1057 521 9 0 74 -30 426 -199 82 -39 150 -71 151 -71 2 0 92 -43
200 -95 109 -52 198 -95 200 -95 1 0 85 -40 186 -89 101 -48 209 -100 239
-114 30 -14 123 -57 205 -97 83 -40 177 -85 210 -100 33 -15 102 -48 153 -73
l93 -45 47 22 c26 13 127 58 224 102 98 43 178 82 178 85 0 5 -144 76 -755
374 -126 62 -333 163 -460 225 -126 62 -306 150 -400 195 -93 45 -287 140
-430 210 -433 211 -462 225 -476 225 -8 -1 -54 -21 -104 -45z"/>
<path d="M3445 5312 c-38 -21 -124 -67 -190 -102 -66 -34 -147 -77 -180 -95
-33 -18 -105 -56 -160 -85 -55 -29 -120 -64 -145 -78 -25 -13 -103 -55 -175
-93 -71 -37 -150 -79 -175 -93 -25 -13 -82 -43 -127 -67 -45 -24 -81 -44 -80
-45 3 -2 508 -190 526 -196 8 -2 179 90 380 205 201 115 376 214 387 219 18 8
46 -1 150 -52 71 -35 201 -98 289 -140 88 -43 232 -112 320 -155 88 -43 165
-78 170 -78 6 0 108 56 228 124 l219 124 -134 65 c-74 36 -193 93 -264 127
-71 34 -205 99 -299 144 -93 44 -215 103 -270 129 -55 26 -162 78 -238 114
-77 36 -144 66 -150 66 -7 0 -43 -18 -82 -38z"/>
<path d="M110 3632 l0 -278 93 -44 c50 -24 189 -91 307 -148 118 -57 256 -124
305 -147 50 -24 171 -82 270 -130 233 -113 434 -210 615 -297 261 -127 527
-255 885 -428 83 -40 195 -94 250 -120 55 -26 190 -91 300 -145 110 -53 242
-117 293 -141 l93 -45 322 160 c612 302 2042 1013 2045 1016 5 4 5 495 1 499
-2 3 -231 -108 -509 -246 -278 -137 -707 -350 -955 -473 -247 -122 -549 -272
-670 -332 l-221 -110 -219 107 c-121 59 -391 192 -600 295 -483 238 -949 467
-1330 655 -605 298 -1043 513 -1157 571 l-118 59 0 -278z"/>
</g>
</svg>
